<svg width="25" height="20" viewBox="0 0 25 20" fill="none" xmlns="http://www.w3.org/2000/svg">
<path d="M9.12327 19.75H7.75783C7.62063 19.75 7.48564 19.7185 7.36518 19.6585C7.24473 19.5984 7.14267 19.5118 7.06833 19.4064C6.99399 19.301 6.94974 19.1803 6.93964 19.0552C6.92953 18.9302 6.95389 18.8048 7.01048 18.6906L10.3169 12.0227L5.35216 11.9219L3.54149 13.9267C3.19629 14.3233 2.92084 14.5 2.21812 14.5H1.29893C1.1534 14.5043 1.00888 14.4764 0.877622 14.4188C0.746365 14.3612 0.632239 14.2755 0.544916 14.1691C0.422837 14.0186 0.30281 13.7636 0.419759 13.3998L1.4364 10.0717C1.44409 10.0469 1.45333 10.022 1.46359 9.99766C1.4641 9.99534 1.4641 9.99295 1.46359 9.99063C1.45299 9.96627 1.44392 9.94139 1.4364 9.91609L0.418733 6.56687C0.308452 6.21016 0.428992 5.96078 0.550045 5.81406C0.631333 5.71549 0.736795 5.63573 0.857953 5.58118C0.979111 5.52664 1.11258 5.49883 1.24764 5.5H2.21812C2.74285 5.5 3.2522 5.71516 3.55175 6.0625L5.32497 8.03359L10.3169 7.96609L7.01151 1.30984C6.95484 1.19568 6.93038 1.07036 6.94038 0.945327C6.95038 0.820298 6.99452 0.699555 7.06875 0.594135C7.14299 0.488715 7.24495 0.401982 7.36533 0.341864C7.48571 0.281747 7.62065 0.250163 7.75783 0.25H9.13815C9.33071 0.253536 9.51994 0.29667 9.69177 0.376197C9.86359 0.455724 10.0136 0.569602 10.1307 0.709375L16.545 7.83438L19.5082 7.76312C19.7252 7.75234 20.3263 7.74859 20.4653 7.74859C23.2998 7.75 24.9925 8.59094 24.9925 10C24.9925 10.4434 24.7986 11.2656 23.5014 11.7888C22.7356 12.0981 21.7138 12.2547 20.4643 12.2547C20.3268 12.2547 19.7272 12.2509 19.5072 12.2402L16.5444 12.168L10.1143 19.293C9.9971 19.4321 9.84721 19.5454 9.67569 19.6246C9.50416 19.7037 9.31537 19.7465 9.12327 19.75V19.75Z" fill="#1262AE"/>
</svg>
