<svg width="26" height="20" viewBox="0 0 26 20" fill="none" xmlns="http://www.w3.org/2000/svg">
<path d="M9.62327 19.75H8.25783C8.12063 19.75 7.98564 19.7185 7.86518 19.6585C7.74473 19.5984 7.64267 19.5118 7.56833 19.4064C7.49399 19.301 7.44974 19.1803 7.43964 19.0552C7.42953 18.9302 7.45389 18.8048 7.51048 18.6906L10.8169 12.0227L5.85216 11.9219L4.04149 13.9267C3.69629 14.3233 3.42084 14.5 2.71812 14.5H1.79893C1.6534 14.5043 1.50888 14.4764 1.37762 14.4188C1.24637 14.3612 1.13224 14.2755 1.04492 14.1691C0.922837 14.0186 0.80281 13.7636 0.919759 13.3998L1.9364 10.0717C1.94409 10.0469 1.95333 10.022 1.96359 9.99766C1.9641 9.99534 1.9641 9.99295 1.96359 9.99063C1.95299 9.96627 1.94392 9.94139 1.9364 9.91609L0.918733 6.56687C0.808452 6.21016 0.928992 5.96078 1.05005 5.81406C1.13133 5.71549 1.2368 5.63573 1.35795 5.58118C1.47911 5.52664 1.61258 5.49883 1.74764 5.5H2.71812C3.24285 5.5 3.7522 5.71516 4.05175 6.0625L5.82497 8.03359L10.8169 7.96609L7.51151 1.30984C7.45484 1.19568 7.43038 1.07036 7.44038 0.945327C7.45038 0.820298 7.49452 0.699555 7.56875 0.594135C7.64299 0.488715 7.74495 0.401982 7.86533 0.341864C7.98571 0.281747 8.12065 0.250163 8.25783 0.25H9.63815C9.83071 0.253536 10.0199 0.29667 10.1918 0.376197C10.3636 0.455724 10.5136 0.569602 10.6307 0.709375L17.045 7.83438L20.0082 7.76312C20.2252 7.75234 20.8263 7.74859 20.9653 7.74859C23.7998 7.75 25.4925 8.59094 25.4925 10C25.4925 10.4434 25.2986 11.2656 24.0014 11.7888C23.2356 12.0981 22.2138 12.2547 20.9643 12.2547C20.8268 12.2547 20.2272 12.2509 20.0072 12.2402L17.0444 12.168L10.6143 19.293C10.4971 19.4321 10.3472 19.5454 10.1757 19.6246C10.0042 19.7037 9.81537 19.7465 9.62327 19.75V19.75Z" fill="#1262AE"/>
</svg>
