<svg width="20" height="21" viewBox="0 0 20 21" fill="none" xmlns="http://www.w3.org/2000/svg">
<path d="M19.6732 18.0531C19.0303 17.48 18.4675 16.823 17.9999 16.0998C17.4894 15.1015 17.1834 14.0113 17.0999 12.8931V9.59977C17.1043 7.84351 16.4672 6.14609 15.3084 4.82642C14.1495 3.50675 12.5486 2.65568 10.8065 2.43311V1.57311C10.8065 1.33706 10.7128 1.11069 10.5459 0.943781C10.379 0.776873 10.1526 0.683105 9.91654 0.683105C9.68049 0.683105 9.45412 0.776873 9.28721 0.943781C9.1203 1.11069 9.02654 1.33706 9.02654 1.57311V2.44644C7.30004 2.68506 5.71852 3.54128 4.57489 4.85651C3.43126 6.17174 2.80302 7.85687 2.80654 9.59977V12.8931C2.72304 14.0113 2.41705 15.1015 1.90654 16.0998C1.44712 16.8213 0.893333 17.4783 0.25987 18.0531C0.188757 18.1156 0.131764 18.1925 0.0926814 18.2787C0.0535988 18.3649 0.033323 18.4584 0.0332031 18.5531V19.4598C0.0332031 19.6366 0.103441 19.8062 0.228465 19.9312C0.353489 20.0562 0.523059 20.1264 0.69987 20.1264H19.2332C19.41 20.1264 19.5796 20.0562 19.7046 19.9312C19.8296 19.8062 19.8999 19.6366 19.8999 19.4598V18.5531C19.8997 18.4584 19.8795 18.3649 19.8404 18.2787C19.8013 18.1925 19.7443 18.1156 19.6732 18.0531ZM1.41987 18.7931C2.04014 18.1939 2.58627 17.5224 3.04654 16.7931C3.68961 15.5874 4.06482 14.2571 4.14654 12.8931V9.59977C4.1201 8.81846 4.25115 8.03982 4.5319 7.31022C4.81265 6.58061 5.23734 5.91496 5.7807 5.35291C6.32406 4.79085 6.97496 4.34388 7.69466 4.03862C8.41435 3.73336 9.18811 3.57604 9.96987 3.57604C10.7516 3.57604 11.5254 3.73336 12.2451 4.03862C12.9648 4.34388 13.6157 4.79085 14.159 5.35291C14.7024 5.91496 15.1271 6.58061 15.4078 7.31022C15.6886 8.03982 15.8196 8.81846 15.7932 9.59977V12.8931C15.8749 14.2571 16.2501 15.5874 16.8932 16.7931C17.3535 17.5224 17.8996 18.1939 18.5199 18.7931H1.41987Z" fill="#424242"/>
</svg>
